<?xml version="1.0" encoding="utf-8"?>
<!-- Svg Vector Icons : http://www.onlinewebfonts.com/icon -->
<!DOCTYPE svg PUBLIC "-//W3C//DTD SVG 1.1//EN" "http://www.w3.org/Graphics/SVG/1.1/DTD/svg11.dtd">
<svg version="1.1" xmlns="http://www.w3.org/2000/svg" xmlns:xlink="http://www.w3.org/1999/xlink" x="0px" y="0px" viewBox="0 0 1000 1000" enable-background="new 0 0 1000 1000" xml:space="preserve">
<metadata> Svg Vector Icons : http://www.onlinewebfonts.com/icon </metadata>
<g><path d="M990,197.6c-16.5,9.1-66,27.3-112.2,31.8c29.6-15.9,73.5-68.2,84.3-109.8c-28.5,18.2-93.9,44.7-126.2,44.7c0,0,0,0.1,0.1,0.1c-36.8-38.5-88.6-62.5-146.2-62.5c-111.6,0-202.2,90.5-202.2,202.1c0,15.6,1.9,30.6,5.2,45.1h-0.1c-151.5-3.9-328.5-79.8-428.3-209.7c-61.2,106.1-8.3,224.1,61.3,267c-23.7,1.9-67.7-2.6-88.3-22.7C36.1,454.1,70,547.4,193.5,581.1c-23.8,12.9-65.8,9.2-84.2,6.4c6.5,59.6,89.7,137.3,180.7,137.3c-32.4,37.4-143.1,105.6-280,83.9c93,56.6,201.5,89.4,316.2,89.4c326.2,0,579.5-264.4,565.8-590.5c0-0.4-0.1-0.7-0.1-1.1c0-0.8,0.1-1.8,0.1-2.6c0-1-0.1-1.9-0.1-3.1C921.6,280.8,961.5,244.8,990,197.6z"/></g>
</svg>