<?xml version="1.0" encoding="utf-8"?>
<!-- Svg Vector Icons : http://www.onlinewebfonts.com/icon -->
<!DOCTYPE svg PUBLIC "-//W3C//DTD SVG 1.1//EN" "http://www.w3.org/Graphics/SVG/1.1/DTD/svg11.dtd">
<svg version="1.1" xmlns="http://www.w3.org/2000/svg" xmlns:xlink="http://www.w3.org/1999/xlink" x="0px" y="0px" viewBox="0 0 1000 1000" enable-background="new 0 0 1000 1000" xml:space="preserve">
<metadata> Svg Vector Icons : http://www.onlinewebfonts.com/icon </metadata>
<g><g><g><g><path d="M953.2,314.2H641.9c55.9,42.9,92.8,109.8,92.8,185.8c0,60.3-28.3,111.1-60.9,156.5C618,734.2,485,989.2,485,989.2c5.1,0.1,9.9,0.8,15,0.8c270.6,0,490-219.4,490-490C990,434.2,976.8,371.5,953.2,314.2z"/><path d="M499,265.4c107.2-0.8,428.8-4,428.8-4C843.9,111.5,684,10,500,10c-153.4,0-290.3,70.6-380.1,181l149.7,265.8C289.8,348.2,384.5,266.2,499,265.4z"/><path d="M499.9,734.7c-102.4,0-180.4-69.2-220.6-157.3C238.9,488.7,86.1,238.5,86.1,238.5C38.2,314.3,10,403.7,10,500c0,245.8,181.1,448.7,417.1,484l152.3-264C554.5,729,527.9,734.7,499.9,734.7z"/><circle cx="499.9" cy="500" r="158.4"/></g></g><g></g><g></g><g></g><g></g><g></g><g></g><g></g><g></g><g></g><g></g><g></g><g></g><g></g><g></g><g></g></g><g></g><g></g><g></g><g></g><g></g><g></g><g></g><g></g><g></g><g></g><g></g><g></g><g></g><g></g><g></g></g>
</svg>