<?xml version="1.0" encoding="utf-8"?>
<!-- Svg Vector Icons : http://www.onlinewebfonts.com/icon -->
<!DOCTYPE svg PUBLIC "-//W3C//DTD SVG 1.1//EN" "http://www.w3.org/Graphics/SVG/1.1/DTD/svg11.dtd">
<svg version="1.1" xmlns="http://www.w3.org/2000/svg" xmlns:xlink="http://www.w3.org/1999/xlink" x="0px" y="0px" viewBox="0 0 1000 1000" enable-background="new 0 0 1000 1000" xml:space="preserve">
<metadata> Svg Vector Icons : http://www.onlinewebfonts.com/icon </metadata>
<g><path d="M764.2,10c0,0-449.2,0-521.1,0C171.1,10,150,64.2,150,98.4c0,34.2,0,830.5,0,830.5c0,38.5,20.6,52.8,32.2,57.5c11.6,4.7,43.6,8.7,62.7-13.5c0,0,246-286.3,250.2-290.6c6.4-6.4,6.4-6.4,12.8-6.4c12.8,0,107.6,0,159.2,0c66.9,0,77.6-47.8,84.6-76c5.8-23.6,71.1-358.7,92.9-465C861.2,53.7,840.7,10,764.2,10z M751.7,599.8c5.8-23.6,71.1-358.7,92.9-465 M733.4,151.5l-21.9,113.2C708.9,277,693.4,290,679,290c-14.4,0-209.8,0-209.8,0c-22.8,0-39.2,13.4-39.2,36.3v29.4c0,22.9,16.4,39.1,39.3,39.1c0,0,162.9,0,179,0c16.1,0,32,17.7,28.5,35c-3.5,17.3-19.9,101.9-21.8,111.3c-2,9.5-12.8,25.6-32,25.6c-16.2,0-140.6,0-140.6,0c-25.6,0-33.3,3.4-50.5,24.7c-17.1,21.4-171.2,206.9-171.2,206.9c-1.6,1.8-3.1,1.3-3.1-0.7v-648c0-14.6,12.7-31.8,31.7-31.8c0,0,401.9,0,418.2,0C722.9,118,737.3,132.5,733.4,151.5z"/></g>
</svg>